<svg height="692" viewBox="0 0 679 692" width="679" xmlns="http://www.w3.org/2000/svg"><g fill="none" fill-rule="evenodd"><path d="m636.438896 576.730618c27.253614 0 42.444153 19.434954 42.444153 48.92247v65.900131h-26.806833v-64.336399c0-14.967149-8.712221-25.019711-22.562418-25.019711-11.839685 0-25.466492 4.691196-25.466492 15.637319v73.718791h-27.030223v-112.588699h24.34954l1.116951 12.956636c6.031538-8.04205 17.647832-15.190538 33.955322-15.190538zm-84.253475 68.134034h-81.168038c4.805322 12.915173 17.245283 22.115637 31.834128 22.115637 9.346736 0 17.811426-3.776486 23.951445-9.886831l17.375715 17.375715c-10.586871 10.557158-25.194797 17.084046-41.32716 17.084046-32.324261 0-58.528252-26.203991-58.528252-58.528252s26.203991-58.528252 58.528252-58.528252 58.528252 26.203991 58.528252 58.528252c0 2.692539-.181816 5.342611-.533842 7.938611-.956644 3.901074-4.411122 3.901074-8.6605 3.901074zm-17.846788-24.572931c-5.037165-12.443905-17.237017-21.222076-31.487122-21.222076-14.250104 0-26.449957 8.778171-31.487122 21.222076zm-170.435873-98.291721v123.981603l45.348226-66.793692h30.604467l-34.625492 48.028909 39.093298 64.55979h-31.051248l-25.466492-41.773982-29.264126 41.773982h-21.445467v-169.77661zm-100.972405 144.980289c18.753006 0 33.955322-15.202315 33.955322-33.955322 0-18.753006-15.202316-33.955322-33.955322-33.955322-18.753007 0-33.955322 15.202316-33.955322 33.955322 0 18.753007 15.202315 33.955322 33.955322 33.955322zm0 24.57293c-32.324261 0-58.528253-26.203991-58.528253-58.528252s26.203992-58.528252 58.528253-58.528252 58.528252 26.203991 58.528252 58.528252-26.203991 58.528252-58.528252 58.528252zm-74.165572-169.553219v169.77661h-26.806833v-169.77661zm-60.936905 127.628672 17.375719 17.375719c-15.389772 15.440545-36.680832 24.995609-60.203597 24.995609-46.9442037 0-85-38.055796-85-85s38.0557963-85 85-85c23.59188 0 44.938922 9.611296 60.3391 25.131864l-17.375872 17.375873c-10.953189-11.073828-26.156975-17.934807-42.963228-17.934807-33.372949 0-60.4270696 27.054121-60.4270696 60.42707s27.0541206 60.42707 60.4270696 60.42707c16.737138 0 31.884961-6.804663 42.827878-17.798398z" fill="#38322d" fill-rule="nonzero"/><path d="m504.434462 311.627044 33.41745 19.286466c15.714898-29.395555 24.892274-62.673249 26.103502-97.969654h-38.433174c-4.30141 0-7.779806-3.478397-7.779806-7.764278s3.478396-7.764278 7.764277-7.764278h38.433174c-1.211227-35.296405-10.388603-68.589628-26.103501-97.969654l-33.417451 19.286466c-1.226756.698785-2.562211 1.040413-3.86661 1.040413-2.68644 0-5.295237-1.382042-6.739393-3.882139-2.142941-3.711325-.869599-8.463063 2.841726-10.606003l33.246636-19.193294c-18.168409-28.9762842-42.672469-53.4803442-71.648753-71.6487537l-19.193294 33.231108c-1.444156 2.4845688-4.052953 3.8821388-6.739393 3.8821388-1.319927 0-2.655383-.3260997-3.86661-1.0404132-3.711325-2.1429406-4.984667-6.8946785-2.841726-10.6060032l19.286465-33.4174506c-31.554024-16.86401092-67.533686-26.4917151-105.733932-26.4917151-4.285881 0-7.764277 3.47839635-7.764277 7.76427757v209.63549443h-209.635494c-4.285882 0-7.764278 3.478396-7.764278 7.764277 0 38.200246 9.627704 74.179908 26.491715 105.733932l33.417451-19.286465c3.680267-2.142941 8.447534-.885128 10.606003 2.841726 2.14294 3.711324.869599 8.463062-2.841726 10.606003l-33.231108 19.208822c18.16841 28.976284 42.67247 53.480344 71.648754 71.648754l19.193294-33.246637c2.14294-3.711324 6.87915-5.000195 10.606003-2.841725 3.711325 2.14294 4.984666 6.894678 2.841726 10.606003l-19.286466 33.41745c29.395555 15.69937 62.673249 24.892274 97.969654 26.103502v-38.433174c0-4.285882 3.478397-7.764278 7.764278-7.764278s7.764278 3.478396 7.764278 7.764278v38.433174c35.296405-1.211228 68.589628-10.388604 97.969654-26.103502l-19.286466-33.41745c-2.14294-3.711325-.869599-8.463063 2.841726-10.606003 3.695796-2.15847 8.447534-.885128 10.606003 2.841725l19.193294 33.246637c28.976284-18.16841 53.480344-42.67247 71.648754-71.648754l-33.246637-19.193294c-3.711324-2.14294-4.984666-6.894678-2.841725-10.606003 2.14294-3.711325 6.87915-4.984666 10.606003-2.841726z" fill="#c33"/><path d="m147.029237 123.188028c-3.711325-2.142941-5.000195-6.863621-2.857254-10.590475 2.14294-3.726853 6.910207-5.015723 10.621531-2.841725l26.895458 15.528555c3.695796 2.14294 4.969137 6.87915 2.841725 10.590474-1.444155 2.484569-4.052952 3.882139-6.739392 3.882139-1.319928 0-2.655383-.326099-3.866611-1.040413zm92.239617-55.5145847-15.528555-26.8954575c-2.14294-3.7113247-.885127-8.447534 2.826197-10.6060032 3.695796-2.1584691 8.447534-.8851276 10.606003 2.8417256l15.528555 26.8954575c2.142941 3.7113247.885128 8.4785911-2.826197 10.6060032-1.211227.698785-2.546683 1.0404132-3.86661 1.0404132-2.68644 0-5.295237-1.39757-6.739393-3.8821388z" fill="#ff9000"/></g></svg>