<svg height="699" viewBox="0 0 674 699" width="674" xmlns="http://www.w3.org/2000/svg" xmlns:xlink="http://www.w3.org/1999/xlink"><linearGradient id="a" x1="50%" x2="50%" y1="0%" y2="100%"><stop offset="0" stop-color="#f48125"/><stop offset="1" stop-color="#c33"/></linearGradient><g fill="none" fill-rule="evenodd" transform="translate(0 -1)"><g transform="translate(99.250382)"><path d="m412.023105 329.06269 35.178485 20.302825c16.543043-30.944644 26.204049-65.976007 27.479105-103.132465h-40.458527c-4.528086 0-8.189787-3.661701-8.189787-8.17344s3.661701-8.17344 8.17344-8.17344h40.458527c-1.275056-37.156457-10.936062-72.204168-27.479105-103.132464l-35.178485 20.302825c-1.291403.735609-2.697235 1.09524-4.070373 1.09524-2.82801 0-5.574286-1.454872-7.094546-4.086719-2.255869-3.906905-.915425-8.90905 2.991479-11.164919l34.99867-20.204744c-19.12585-30.5032774-44.921226-56.2986537-75.424503-75.4245031l-20.204744 34.9823228c-1.52026 2.6155007-4.266536 4.0867199-7.094546 4.0867199-1.389485 0-2.795316-.3432845-4.070373-1.0952409-3.906904-2.2558695-5.247348-7.2580147-2.991479-11.1649189l20.302825-35.1784853c-33.21686-17.7527115-71.09258-27.88777695-111.305905-27.88777695-4.511738 0-8.173439 3.66170107-8.173439 8.17343989v220.68287756h-220.68287756c-4.51173882 0-8.17343989 3.661701-8.17343989 8.173439 0 40.213325 10.13506545 78.089045 27.88777695 111.305905l35.1784853-20.302825c3.8742105-2.255869 8.8927026-.931772 11.1649189 2.991479 2.2558694 3.906904.9154252 8.90905-2.991479 11.164919l-34.9823228 20.22109c19.1258494 30.503278 44.9212257 56.298654 75.4245031 75.424504l20.204744-34.99867c2.255869-3.906904 7.241667-5.263695 11.164919-2.991479 3.906904 2.25587 5.247348 7.258015 2.991479 11.164919l-20.302825 35.178485c30.944643 16.526696 65.976007 26.204049 103.132464 27.479105v-40.458527c0-4.511739 3.661701-8.17344 8.17344-8.17344s8.17344 3.661701 8.17344 8.17344v40.458527c37.156458-1.275056 72.204168-10.936062 103.132465-27.479105l-20.302825-35.178485c-2.255869-3.906904-.915425-8.909049 2.991479-11.164919 3.890557-2.272216 8.892703-.931772 11.164919 2.991479l20.204743 34.99867c30.503278-19.12585 56.298654-44.921226 75.424504-75.424504l-34.99867-20.204743c-3.906904-2.255869-5.247348-7.258015-2.991479-11.164919 2.25587-3.906904 7.241668-5.247348 11.164919-2.991479z" fill="url(#a)"/><path d="m35.7833199 130.693304c-3.9069043-2.25587-5.2636953-7.225321-3.0078259-11.148572s7.2743615-5.280042 11.1812657-2.991479l28.3127958 16.34688c3.8905574 2.255869 5.2310016 7.241667 2.991479 11.148572-1.5202598 2.6155-4.2665356 4.08672-7.0945458 4.08672-1.3894848 0-2.7953164-.343285-4.0703731-1.095241zm97.1004661-58.4400953-16.34688-28.3127958c-2.255869-3.9069043-.931772-8.8927026 2.975132-11.1649189 3.890557-2.2722163 8.892703-.9317722 11.164919 2.991479l16.34688 28.3127958c2.255869 3.9069042.931772 8.9253963-2.975132 11.1649189-1.275057.7356095-2.680889 1.0952409-4.070373 1.0952409-2.828011 0-5.574286-1.4712192-7.094546-4.0867199z" fill="#ff9000"/></g><path d="m84.4811594 699.552699c34.2822096 0 54.3617896-17.141105 66.8503086-36.730939l-24.487292-12.488519c-7.835934 13.712884-23.507801 23.752674-42.3630166 23.752674-31.0988616 0-55.0964083-24.732166-55.0964083-59.014376 0-34.282209 23.9975467-59.014375 55.0964083-59.014375 18.8552156 0 34.5270826 10.284663 42.3630166 23.752674l24.487292-12.488519c-12.243646-19.589834-32.568099-36.730939-66.8503086-36.730939-47.0156017 0-84.4811594 34.28221-84.4811594 84.481159 0 50.19895 37.4655577 84.48116 84.4811594 84.48116zm76.3799466-2.938475h25.711657v-163.330242h-25.711657zm99.642875 2.938475c37.955303 0 60.973358-28.160387 60.973358-62.197723 0-33.792464-23.018055-61.952851-60.973358-61.952851-37.465558 0-60.728486 28.160387-60.728486 61.952851 0 34.037336 23.262928 62.197723 60.728486 62.197723zm0-22.773182c-21.79369 0-34.037337-18.36547-34.037337-39.424541 0-20.814199 12.243647-39.179669 34.037337-39.179669 22.038563 0 34.28221 18.36547 34.28221 39.179669 0 21.059071-12.243647 39.424541-34.28221 39.424541zm152.535427 19.834707h32.323226l-50.19895-64.646453 49.219458-53.627171h-31.83348l-52.157933 57.055392v-102.11201h-25.711658v163.330242h25.711658v-31.833481l16.406486-16.896232zm24.222013-59.259248c0 37.465557 26.446276 62.197723 61.95285 62.197723 18.855216 0 36.241194-5.87695 47.995094-17.141105l-11.7539-16.896232c-8.32568 8.32568-22.038564 12.978265-33.547591 12.978265-22.283437 0-35.751447-14.692375-37.710431-32.568099h91.337601v-6.121823c0-37.220685-22.773182-64.40158-58.279756-64.40158-35.016828 0-59.993867 27.670641-59.993867 61.952851zm59.993867-40.893779c23.262928 0 32.812972 17.385978 33.302718 31.343735h-66.605436c1.224365-14.447503 11.264155-31.343735 33.302718-31.343735zm150.821316 100.153027h25.711658v-83.256795c0-24.24242-12.733393-37.955304-38.200177-37.955304-18.610342 0-33.792464 9.794917-41.628397 19.100089v-16.161614h-25.711657v118.273624h25.711657v-82.522176c5.87695-8.080807 17.141105-15.916741 30.364243-15.916741 14.447502 0 23.752673 6.121824 23.752673 24.487293z" fill="#38322d"/></g></svg>